<?xml version="1.0" standalone="no"?>
<!DOCTYPE svg PUBLIC "-//W3C//DTD SVG 20010904//EN"
 "http://www.w3.org/TR/2001/REC-SVG-20010904/DTD/svg10.dtd">
<svg version="1.0" xmlns="http://www.w3.org/2000/svg"
 width="910.000000pt" height="910.000000pt" viewBox="0 0 910.000000 910.000000"
 preserveAspectRatio="xMidYMid meet">
<metadata>
Created by potrace 1.11, written by Peter Selinger 2001-2013
</metadata>
<g transform="translate(0.000000,910.000000) scale(0.100000,-0.100000)"
fill="#000000" stroke="none">
<path d="M6240 8140 c0 -5 -3 -9 -7 -8 -11 3 -153 -81 -153 -90 0 -4 -18 -16
-40 -26 -22 -11 -40 -23 -40 -28 0 -4 -7 -8 -15 -8 -8 0 -15 -4 -15 -8 0 -5
-21 -24 -47 -42 -27 -19 -54 -39 -60 -45 -7 -5 -24 -19 -38 -30 -114 -87 -295
-269 -295 -295 0 -5 -4 -10 -9 -10 -4 0 -16 -21 -26 -46 l-18 -46 -41 7 c-22
4 -66 11 -96 16 -231 40 -401 52 -625 46 -230 -7 -500 -38 -568 -66 -16 -6
-43 -11 -61 -11 -17 0 -36 -4 -42 -8 -5 -5 -46 -17 -91 -28 -46 -10 -83 -22
-83 -26 0 -5 -12 -8 -26 -8 -14 0 -38 -6 -52 -14 -25 -12 -73 -30 -159 -60
-18 -6 -33 -14 -33 -18 0 -5 -7 -8 -15 -8 -8 0 -38 -11 -67 -25 -28 -14 -57
-25 -64 -25 -7 0 -14 -4 -16 -9 -4 -10 -120 -77 -160 -92 -16 -6 -28 -15 -28
-20 0 -5 -5 -9 -10 -9 -9 0 -87 -47 -100 -60 -3 -3 -25 -19 -50 -35 -25 -16
-47 -32 -50 -35 -3 -3 -21 -17 -40 -30 -39 -28 -65 -48 -89 -70 -10 -8 -48
-42 -86 -75 -72 -61 -85 -75 -85 -87 0 -12 48 -10 55 2 3 6 21 10 38 10 18 0
48 5 67 11 51 17 158 29 303 35 124 5 127 5 127 -15 0 -12 -6 -21 -14 -21 -8
0 -21 -6 -28 -12 -20 -19 -50 -38 -70 -44 -10 -4 -18 -10 -18 -14 0 -4 -8 -10
-17 -14 -22 -7 -50 -25 -77 -49 -11 -10 -31 -20 -43 -23 -13 -4 -23 -10 -23
-15 0 -4 -21 -20 -47 -36 -27 -15 -52 -33 -56 -40 -4 -7 -14 -13 -22 -13 -7 0
-15 -3 -17 -8 -1 -4 -37 -32 -78 -62 -41 -29 -86 -64 -100 -77 -14 -13 -28
-23 -32 -23 -6 0 -36 -24 -77 -60 -9 -8 -41 -35 -71 -60 -30 -24 -62 -52 -70
-60 -8 -8 -55 -51 -104 -95 -127 -114 -231 -220 -357 -365 -12 -14 -33 -41
-48 -60 -30 -40 -61 -77 -79 -96 -6 -7 -12 -18 -12 -24 0 -6 -7 -13 -15 -16
-8 -4 -15 -11 -15 -16 0 -11 -61 -101 -72 -106 -5 -2 -8 -12 -8 -23 0 -10 -4
-19 -8 -19 -8 0 -97 -171 -123 -235 -41 -103 -58 -165 -44 -165 12 0 55 24 55
32 0 4 9 8 20 8 11 0 20 4 20 9 0 5 8 11 17 15 10 3 32 15 48 26 39 25 151 80
165 80 5 0 10 3 10 8 0 4 21 15 48 25 26 10 55 23 64 28 10 5 26 9 36 9 10 0
23 5 28 10 12 12 89 18 99 8 4 -3 -7 -36 -24 -72 -17 -36 -31 -69 -31 -75 0
-5 -6 -22 -14 -38 -22 -44 -33 -73 -51 -143 -9 -36 -21 -73 -26 -82 -5 -10 -9
-33 -9 -52 0 -19 -5 -47 -11 -63 -20 -51 -32 -194 -36 -425 -3 -156 -1 -228 6
-228 7 0 11 -24 11 -57 0 -32 7 -85 15 -118 8 -33 14 -74 15 -92 0 -17 4 -35
10 -38 6 -3 10 -16 10 -27 0 -21 24 -112 40 -153 5 -11 20 -56 35 -100 30 -90
28 -86 86 -210 89 -192 140 -287 170 -321 11 -11 19 -25 19 -30 0 -6 18 -36
40 -68 22 -31 40 -60 40 -64 0 -4 11 -19 25 -34 14 -15 25 -32 25 -38 0 -5 5
-10 10 -10 6 0 10 -4 10 -10 0 -5 8 -18 18 -28 9 -10 37 -43 62 -73 54 -66
149 -169 170 -186 8 -6 42 -38 76 -70 75 -72 137 -124 189 -159 22 -14 42 -30
45 -34 5 -7 95 -69 155 -105 19 -12 42 -28 53 -38 10 -9 26 -17 35 -17 9 0 17
-4 17 -8 0 -5 30 -24 67 -43 38 -19 70 -37 73 -40 7 -9 246 -127 273 -135 23
-7 120 -49 149 -65 10 -5 24 -9 32 -9 7 0 27 -7 42 -15 16 -8 37 -15 47 -15 9
0 17 -4 17 -9 0 -5 18 -12 40 -16 22 -4 42 -11 46 -16 3 -5 16 -9 29 -9 13 0
27 -4 30 -10 3 -5 18 -10 33 -10 15 0 36 -7 46 -15 11 -8 29 -15 41 -15 12 0
25 -3 29 -7 8 -8 100 -31 159 -40 20 -3 40 -9 43 -14 3 -5 17 -9 31 -9 14 0
39 -6 56 -14 18 -8 50 -17 72 -19 22 -3 76 -12 120 -21 44 -9 107 -21 140 -26
33 -5 85 -13 115 -19 100 -18 204 -30 311 -36 l105 -6 27 90 c15 49 27 104 27
120 0 17 4 31 8 31 17 0 62 349 66 507 2 114 -22 389 -37 423 -8 19 -27 96
-34 137 -3 18 -9 33 -14 33 -5 0 -9 9 -9 19 0 10 -13 46 -30 79 -16 34 -30 63
-30 66 0 6 -101 168 -110 176 -20 19 -110 153 -110 165 0 8 -4 15 -9 15 -5 0
-19 20 -31 45 -12 25 -26 47 -31 51 -5 3 -9 14 -9 24 0 10 -3 20 -7 22 -5 2
-16 19 -25 38 -44 91 -87 190 -103 235 -9 28 -21 58 -26 67 -5 10 -9 24 -9 33
0 8 -6 29 -14 47 -19 44 -57 180 -68 243 -39 220 -51 384 -38 482 22 160 44
261 61 278 5 5 9 15 9 23 0 13 50 123 60 132 4 3 16 21 28 40 11 20 33 49 47
65 15 17 33 40 42 53 8 12 19 22 24 22 5 0 23 16 40 35 17 19 37 35 45 35 8 0
14 3 14 8 0 4 17 16 38 27 20 11 43 26 50 32 17 16 29 16 41 1 6 -7 25 -29 42
-48 17 -19 38 -46 47 -60 17 -26 50 -64 115 -132 20 -22 37 -44 37 -49 0 -5 4
-9 8 -9 4 0 37 -28 73 -63 67 -65 127 -115 188 -157 20 -14 40 -31 44 -37 4
-7 15 -13 22 -13 8 0 15 -3 15 -8 0 -4 17 -16 38 -27 20 -11 39 -22 42 -25 6
-6 159 -81 205 -100 36 -15 95 -30 150 -37 22 -3 45 -9 50 -13 6 -4 22 -10 37
-14 23 -5 28 -13 34 -53 4 -25 13 -58 20 -72 8 -14 14 -31 14 -38 0 -15 53
-117 62 -121 5 -2 8 -9 8 -16 0 -26 88 -102 159 -139 71 -36 78 -37 177 -37
101 0 167 10 229 35 17 7 46 18 65 25 19 7 39 17 44 22 6 4 16 8 24 8 8 0 42
18 76 41 150 98 224 340 185 604 -6 41 -15 75 -20 75 -5 0 -9 13 -9 28 0 29
-66 174 -81 180 -5 2 -9 8 -9 14 0 6 -13 27 -30 48 -16 21 -30 41 -30 44 0 4
-22 37 -48 74 -26 37 -53 78 -60 92 -12 27 -80 222 -89 255 -4 19 -24 66 -44
107 -5 10 -9 24 -9 32 0 7 -7 27 -15 42 -8 16 -15 37 -15 46 0 9 -4 20 -10 23
-5 3 -10 17 -10 31 0 13 -4 24 -10 24 -5 0 -13 18 -16 40 -4 22 -10 40 -13 40
-4 0 -15 24 -25 53 -11 28 -23 56 -27 61 -5 6 -9 17 -9 25 0 9 -14 43 -30 76
-16 33 -30 66 -30 73 0 6 -4 12 -10 12 -5 0 -10 8 -10 17 0 9 -23 64 -51 122
-28 58 -63 131 -78 161 -14 30 -28 57 -31 60 -3 3 -21 37 -41 75 -62 118 -74
140 -79 145 -3 3 -27 38 -54 78 -27 39 -53 72 -58 72 -4 0 -8 5 -8 11 0 6 -16
27 -35 47 -39 41 -39 40 -55 167 -6 50 -16 122 -22 160 -18 114 -14 485 6 580
10 44 20 93 23 108 l5 28 -31 -18 c-64 -37 -147 -100 -192 -143 -88 -86 -83
-87 -75 11 4 47 11 101 16 120 6 19 10 48 10 65 0 17 3 34 7 38 4 4 12 26 19
49 6 23 14 50 19 60 4 10 3 17 -4 17 -6 0 -11 -4 -11 -10z"/>
</g>
</svg>
